<svg xmlns="http://www.w3.org/2000/svg" height="24" width="24" viewBox="0 0 438.5 438.5"><path d="M414.4 24c-16-16-35.4-24-58-24H82c-22.6 0-42 8-58 24C8 40.3 0 59.7 0 82.3v274c0 22.8 8 42 24 58.2 16.2 16 35.6 24 58.2 24h274c22.8 0 42-8 58.2-24 16-16 24-35.4 24-58V82c0-22.6-8-42-24-58zM133.6 367.3h-66V169h66v198.2zm-6-235c-6.8 6.7-16 10-27 10h-.4c-10.8 0-19.6-3.3-26.4-10-6.8-6.4-10-14.6-10-24.3 0-10 3.3-18.2 10.3-24.6 7-6.5 16-9.7 27-9.7s20 3.2 26.6 9.7c6.7 6.4 10 14.6 10.3 24.5 0 9.6-3.5 17.8-10.4 24.3zm243.3 235h-66v-106c0-29.8-11-44.8-33.2-44.8-8.4 0-15.4 2.3-21 7-5.8 4.7-10 10.3-13 17-1.3 3.4-2 8.7-2 16v110.8h-66c.7-119.6.7-185.6 0-198.2h66v28c14-21.7 33.6-32.6 59-32.6 23 0 41.3 7.6 55.2 22.6 14 15 21 37.2 21 66.5v113.7z"/></svg>