<?xml version="1.0" encoding="UTF-8" standalone="no"?>
<!DOCTYPE svg PUBLIC "-//W3C//DTD SVG 1.1//EN"
"http://www.w3.org/Graphics/SVG/1.1/DTD/svg11.dtd">


<!-- Page 1 -->
<svg viewBox="0 0 801 238" version="1.1" xmlns="http://www.w3.org/2000/svg" xmlns:xlink="http://www.w3.org/1999/xlink">
<defs>

<style type="text/css"><![CDATA[

.g1_1{
fill: none;
stroke: #042350;
stroke-width: 6.111111;
stroke-linecap: round;
stroke-linejoin: round;
stroke-miterlimit: 22;
}
.g2_1{
fill: none;
stroke: #042350;
stroke-width: 6.111111;
stroke-linecap: butt;
stroke-linejoin: miter;
stroke-miterlimit: 22;
}

.s1_1{
font-size: 152.78px;
font-family: Bauhaus93_i;
fill: TRANSPARENT;
}
.s2_1{
font-size: 305.56px;
font-family: Bauhaus93_i;
fill: TRANSPARENT;
}
.s3_1{
font-size: 229.17px;
font-family: Bauhaus93_i;
fill: TRANSPARENT;
}
.s4_1{
font-size: 29.59px;
font-family: Corbel-Bold_s;
fill: TRANSPARENT;
}
text::-moz-selection {
	color: transparent;
	background: rgba(0, 106, 173, 0.4);
}
text::selection {
	color: transparent;
	background: rgba(0, 106, 173, 0.4);
}

]]></style>

</defs>
<path d="M0,0
L0,238
L801,238
L801,0 Z " 
fill="#FFFFFF" stroke="none" />
<g fill="#042350" >
<use xlink:href="#f0_2" transform="matrix(100,0,0,100,177.5,133.7)" />
<use xlink:href="#f0_5" transform="matrix(100,0,0,100,266,133.7)" />
<use xlink:href="#f0_a" transform="matrix(100,0,0,100,310.2,133.7)" />
<use xlink:href="#f0_3" transform="matrix(100,0,0,100,392.7,133.7)" />
</g>
<g fill="#79BAD8" >
<use xlink:href="#f0_7" transform="matrix(100,0,0,100,477.4,133.7)" />
<use xlink:href="#f0_8" transform="matrix(100,0,0,100,565.9,133.7)" />
<use xlink:href="#f0_4" transform="matrix(100,0,0,100,614.9,133.7)" />
<use xlink:href="#f0_6" transform="matrix(100,0,0,100,659.2,133.7)" />
<use xlink:href="#f0_9" transform="matrix(100,0,0,100,741.7,133.7)" />
</g>
<g fill="#042350" >
<use xlink:href="#f0_2" transform="matrix(200,0,0,200,3.8,210.7)" />
</g>
<text 
x="177" 
y="133" 
dx="0,0,-0.1,-0.1" 
class="s1_1"
>blue</text>

<text 
x="477" 
y="133" 
dx="0,0,0,0,-0.2" 
class="s1_1"
>print</text>

<g fill="#79BAD8" stroke-width="50.92287063598633" stroke-miterlimit="22.0" stroke="#FFFFFF" >
<use xlink:href="#f0_7" transform="matrix(150,0,0,150,25.1,193)" />
</g>
<text 
x="3" 
y="210" 
dx="0" 
class="s2_1"
>b</text>

<text 
x="25" 
y="192" 
dx="0" 
class="s3_1"
>p</text>

<g fill="#042350" >
<use xlink:href="#f1_3" transform="matrix(17.6,0,0,19.4,282.3,188.8)" />
<use xlink:href="#f1_7" transform="matrix(17.6,0,0,19.4,298.9,188.8)" />
<use xlink:href="#f1_6" transform="matrix(17.6,0,0,19.4,316.1,188.8)" />
<use xlink:href="#f1_c" transform="matrix(17.6,0,0,19.4,330.6,188.8)" />
<use xlink:href="#f1_4" transform="matrix(17.6,0,0,19.4,349.3,188.8)" />
<use xlink:href="#f1_8" transform="matrix(17.6,0,0,19.4,364.2,188.8)" />
<use xlink:href="#f1_9" transform="matrix(17.6,0,0,19.4,370.7,188.8)" />
<use xlink:href="#f1_3" transform="matrix(17.6,0,0,19.4,380.7,188.8)" />
<use xlink:href="#f1_k" transform="matrix(17.6,0,0,19.4,401.3,188.8)" />
<use xlink:href="#f1_3" transform="matrix(17.6,0,0,19.4,416.7,188.8)" />
<use xlink:href="#f1_f" transform="matrix(17.6,0,0,19.4,438.2,188.8)" />
<use xlink:href="#f1_3" transform="matrix(17.6,0,0,19.4,454.2,188.8)" />
<use xlink:href="#f1_l" transform="matrix(17.6,0,0,19.4,470.8,188.8)" />
<use xlink:href="#f1_i" transform="matrix(17.6,0,0,19.4,485.7,188.8)" />
<use xlink:href="#f1_c" transform="matrix(17.6,0,0,19.4,503.7,188.8)" />
<use xlink:href="#f1_d" transform="matrix(17.6,0,0,19.4,522.4,188.8)" />
<use xlink:href="#f1_j" transform="matrix(17.6,0,0,19.4,541,188.8)" />
<use xlink:href="#f1_d" transform="matrix(17.6,0,0,19.4,557.1,188.8)" />
<use xlink:href="#f1_5" transform="matrix(17.6,0,0,19.4,576,188.8)" />
<use xlink:href="#f1_g" transform="matrix(17.6,0,0,19.4,593.7,188.8)" />
<use xlink:href="#f1_h" transform="matrix(17.6,0,0,19.4,608.4,188.8)" />
<use xlink:href="#f1_j" transform="matrix(17.6,0,0,19.4,622.9,188.8)" />
<use xlink:href="#f1_6" transform="matrix(17.6,0,0,19.4,639.2,188.8)" />
<use xlink:href="#f1_c" transform="matrix(17.6,0,0,19.4,653.6,188.8)" />
<use xlink:href="#f1_6" transform="matrix(17.6,0,0,19.4,672.3,188.8)" />
<use xlink:href="#f1_i" transform="matrix(17.6,0,0,19.4,690.7,188.8)" />
<use xlink:href="#f1_g" transform="matrix(17.6,0,0,19.4,708.7,188.8)" />
<use xlink:href="#f1_b" transform="matrix(17.6,0,0,19.4,723.3,188.8)" />
<use xlink:href="#f1_i" transform="matrix(17.6,0,0,19.4,737,188.8)" />
<use xlink:href="#f1_7" transform="matrix(17.6,0,0,19.4,754.9,188.8)" />
<use xlink:href="#f1_6" transform="matrix(17.6,0,0,19.4,772.2,188.8)" />
</g>
<text 
transform="matrix(0.91, 0, 0, 1, 282, 188)"
dx="0,-1.2,-0.9,-0.9,-0.9,-0.9,-0.9,-0.9,-0.9,-1.9,-0.9,-0.9,-0.9,-0.9,-1.2,-0.9,-0.9,-0.9,-1.2,-1.2,-0.9,-0.9,-0.9,-0.9,-0.9,-0.9,-0.9,-0.9,-1.8,-0.9,-0.9,-0.9,-0.9,-0.9" 
class="s4_1"
>AGENCIJA ZA RAČUNOVODSTVENE USLUGE</text>

<path d="M186.4,148.3l290.9,0" class="g1_1" />
<path d="M519.7,147.7l263.2,0" class="g1_1" />
<path d="M514.2,147.7l236.6,0" class="g2_1" />
<path d="M219.9,148.3l260.7,0" class="g2_1" />
<g fill="#042350" >
<use xlink:href="#f1_8" transform="matrix(17.6,0,0,19.4,497.5,216.3)" />
<use xlink:href="#f1_e" transform="matrix(17.6,0,0,19.4,508.8,216.3)" />
<use xlink:href="#f1_d" transform="matrix(17.6,0,0,19.4,524.1,216.3)" />
<use xlink:href="#f1_g" transform="matrix(17.6,0,0,19.4,543.1,216.3)" />
<use xlink:href="#f1_b" transform="matrix(17.6,0,0,19.4,557.7,216.3)" />
<use xlink:href="#f1_d" transform="matrix(17.6,0,0,19.4,570.3,216.3)" />
<use xlink:href="#f1_j" transform="matrix(17.6,0,0,19.4,588.9,216.3)" />
<use xlink:href="#f1_c" transform="matrix(17.6,0,0,19.4,605.2,216.3)" />
<use xlink:href="#f1_8" transform="matrix(17.6,0,0,19.4,624,216.3)" />
<use xlink:href="#f1_a" transform="matrix(17.6,0,0,19.4,635.3,216.3)" />
<use xlink:href="#f1_d" transform="matrix(17.6,0,0,19.4,650.1,216.3)" />
<use xlink:href="#f1_c" transform="matrix(17.6,0,0,19.4,669,216.3)" />
<use xlink:href="#f1_g" transform="matrix(17.6,0,0,19.4,687.7,216.3)" />
<use xlink:href="#f1_3" transform="matrix(17.6,0,0,19.4,702.4,216.3)" />
<use xlink:href="#f1_b" transform="matrix(17.6,0,0,19.4,719.2,216.3)" />
<use xlink:href="#f1_h" transform="matrix(17.6,0,0,19.4,729.6,216.3)" />
<use xlink:href="#f1_8" transform="matrix(17.6,0,0,19.4,744.1,216.3)" />
<use xlink:href="#f1_c" transform="matrix(17.6,0,0,19.4,750.6,216.3)" />
<use xlink:href="#f1_7" transform="matrix(17.6,0,0,19.4,769.4,216.3)" />
</g>
<text 
transform="matrix(0.91, 0, 0, 1, 497, 216)"
dx="0,-0.9,-0.9,-0.9,-0.9,-0.9,-2.1,-1.2,-0.9,-0.9,-0.9,-0.9,-2.4,-0.9,-0.9,-0.9,-0.9,-4.5,-0.9,-0.9,-0.9" 
class="s4_1"
>I POSLOVNI KONSALTING</text>


<defs>
	<path d="M447.6,-15.2c-55,0,-110,12.2,-161.9,36.6c-53.5,24.4,-97.8,58,-131.4,99.3C94.7,192.5,64.2,284.2,64.2,398.8l0,620.2l279.6,0l0,-609.6c0,-99.3,35.1,-149.7,106.9,-149.7c30.6,0,56.5,10.7,76.4,30.6c21.4,21.4,32.1,45.8,32.1,76.4c0,30.5,-9.2,55,-29.1,76.4c-19.8,19.8,-44.3,30.5,-73.3,30.5c-19.9,0,-44.3,-9.2,-70.3,-26l0,307.1c33.6,3.1,58.1,4.6,74.9,4.6c105.4,0,195.5,-38.2,270.4,-113C806.7,569.9,843.3,479.7,843.3,372.8c0,-110,-38.2,-201.7,-114.5,-276.5C652.4,22.9,559.2,-15.2,447.6,-15.2Z" 
	id="f0_2"
	transform="scale(0.001,-0.001)" />

	<path d="M81,0l0,1019l279.6,0L360.6,0Z" 
	id="f0_5"
	transform="scale(0.001,-0.001)" />

	<path d="M412.5,-25.9c-105.4,0,-191,38.1,-256.7,116C106.9,149.7,81,233.8,81,340.7l0,392.6l279.6,0l0,-420.1c0,-42.8,16.8,-64.2,51.9,-64.2c35.1,0,51.9,21.4,51.9,64.2l0,420.1l279.6,0l0,-414c0,-97.8,-32.1,-178.7,-96.2,-246C583.6,7.6,505.7,-25.9,412.5,-25.9Z" 
	id="f0_a"
	transform="scale(0.001,-0.001)" />

	<path d="M430.8,-15.2c-110,0,-203.2,36.6,-278,111.5C77.9,171.1,39.7,262.8,39.7,371.3c0,110,38.2,201.6,114.6,276.5c74.9,74.8,168.1,113,279.6,113c106.9,0,198.6,-36.6,271.9,-110c73.4,-73.3,110,-163.4,110,-271.9c0,-10.7,-1.5,-27.5,-3,-52l-423.2,0c-6.1,21.4,-9.2,41.3,-9.2,58.1c0,26,4.6,50.4,12.2,73.3l142.1,0c-9.1,56.6,-41.2,84.1,-93.2,84.1c-35.1,0,-62.6,-15.3,-84,-44.3C334.6,469,323.9,430.8,323.9,383.5c0,-47.4,10.7,-87.1,32.1,-117.7c21.4,-29,48.9,-44.3,82.5,-44.3c27.5,0,55,13.8,80.9,42.8L678.3,71.8c-74.8,-58,-157.3,-87,-247.5,-87Z" 
	id="f0_3"
	transform="scale(0.001,-0.001)" />

	<path d="M64.2,-274.9l0,620.2c0,114.6,30.5,207.8,90.1,279.6c33.6,41.2,77.9,73.3,131.4,97.7c51.9,24.5,106.9,36.7,161.9,36.7c111.6,0,204.8,-36.7,281.2,-111.5c76.3,-74.9,114.5,-166.5,114.5,-275c0,-105.4,-38.2,-197.1,-113,-273.5C653.9,22.9,565.3,-15.2,461.4,-15.2c-16.8,0,-41.3,1.5,-74.9,4.6l0,308.5c22.9,-18.3,45.9,-27.5,68.8,-27.5c29,0,53.5,10.7,74.8,32.1c19.9,21.4,30.6,47.4,30.6,76.4c0,29,-10.7,53.5,-32.1,74.9c-21.4,19.8,-47.3,30.5,-76.4,30.5c-71.8,0,-108.4,-48.9,-108.4,-149.7l0,-609.5Z" 
	id="f0_7"
	transform="scale(0.001,-0.001)" />

	<path d="M81,0l0,406.4c0,108.5,29,194,88.6,256.7c58,64.1,136,96.2,233.7,96.2c23,0,50.5,-3,85.6,-7.6l0,-297.9C469,464.4,452.2,469,436.9,469c-50.4,0,-76.3,-38.2,-76.3,-116.1L360.6,0Z" 
	id="f0_8"
	transform="scale(0.001,-0.001)" />

	<path d="M81,0l0,744l279.6,0l0,-744ZM223.1,808.2c-41.3,0,-74.9,12.2,-100.9,38.2C96.3,870.8,82.5,902.9,82.5,941.1c0,36.7,13.8,68.8,41.3,94.7c27.5,26,61.1,39.8,99.3,39.8c36.6,0,70.2,-13.8,97.7,-39.8c27.5,-25.9,41.3,-58,41.3,-94.7c0,-38.2,-12.2,-70.3,-39.7,-94.7c-26,-26,-59.6,-38.2,-99.3,-38.2Z" 
	id="f0_4"
	transform="scale(0.001,-0.001)" />

	<path d="M81,0l0,415.6c0,96.2,32.1,178.7,96.2,244.4c64.2,65.7,142.1,99.3,235.3,99.3c106.9,0,192.5,-38.2,256.7,-116.1C719.6,583.6,744,499.6,744,392.6L744,0L464.4,0l0,420.1c0,42.8,-16.8,64.2,-51.9,64.2c-35.1,0,-51.9,-21.4,-51.9,-64.2L360.6,0Z" 
	id="f0_6"
	transform="scale(0.001,-0.001)" />

	<path d="M427.8,-10.6C365.1,-10.6,305.6,4.6,249,33.6c-55,29,-100.8,68.8,-134.4,119.2C71.8,216.9,50.4,301,50.4,407.9l0,611.1l279.6,0l0,-285.7l125.3,0l0,-294.8l-125.3,0c0,-59.6,9.2,-99.3,27.5,-122.2c18.3,-23,53.5,-33.7,102.4,-33.7l0,-293.2Z" 
	id="f0_9"
	transform="scale(0.001,-0.001)" />

	<path d="M632.5,406.4l-33.6,90.1c-27.5,70.3,-59.6,157.4,-94.7,261.3l-3.1,0C466,653.9,433.9,566.8,406.4,496.5L372.8,406.4ZM22.9,0L418.6,997.6l166.5,0L982.4,0L788.3,0L692.1,253.6l-378.9,0L216.9,0Z" 
	id="f1_3"
	transform="scale(0.001,-0.001)" />

	<path d="M609.6,-18.2C519.4,-18.2,441.5,-6,375.8,18.3C308.6,42.8,252.1,76.4,207.8,119.2c-44.3,44.3,-77.9,96.2,-99.3,157.3C85.6,336.1,74.9,403.3,74.9,476.7c0,51.9,6.1,100.8,18.3,148.2c10.7,47.3,29,90.1,50.4,129.8c22.9,41.3,50.4,76.4,84,108.5c32.1,33.6,68.8,61.1,110,84c41.3,22.9,87.1,39.7,137.5,52c48.9,12.2,102.4,18.3,158.9,18.3c50.4,0,97.8,-3.1,143.6,-10.7c44.3,-7.6,81,-15.3,110,-26l0,-154.3C849.4,838.8,809.7,847.9,770,854c-38.2,6.1,-79.4,9.2,-119.2,9.2c-53.4,0,-105.4,-7.6,-152.7,-24.4C450.7,823.5,411,799,375.8,766.9C340.7,736.4,314.7,696.7,294.9,650.8C275,605,264.3,550,264.3,490.4c0,-117.6,32.1,-206.2,91.7,-265.8C417.1,165,504.2,136,615.7,136c21.4,0,42.8,1.5,65.7,3c21.4,3.1,41.2,6.1,58,9.2l0,233.7l-223,0l0,152.8l406.4,0l0,-504.1C907.5,26,889.2,19.9,866.3,13.8C843.3,7.6,817.4,3.1,788.3,-3c-29,-4.5,-58,-7.6,-88.6,-10.7c-30.5,-3,-59.6,-4.5,-90.1,-4.5Z" 
	id="f1_7"
	transform="scale(0.001,-0.001)" />

	<path d="M119.2,0l0,997.6l647.7,0l0,-152.7l-464.4,0l0,-258.2l398.8,0l0,-152.8l-398.8,0l0,-281.1l490.4,0L792.9,0Z" 
	id="f1_6"
	transform="scale(0.001,-0.001)" />

	<path d="M119.2,0l0,997.6l192.5,0L640.1,534.7C711.9,432.4,770,342.2,814.3,262.8l4.6,0c-6.1,129.8,-9.2,224.6,-9.2,282.6l0,452.2l183.4,0L993.1,0l-191,0l-327,459.9C418.6,539.3,359,631,297.9,736.4l-4.6,0c6.1,-122.2,9.2,-217,9.2,-284.2L302.5,0Z" 
	id="f1_c"
	transform="scale(0.001,-0.001)" />

	<path d="M588.2,-18.2c-84,0,-158.9,12.2,-223.1,36.5C302.5,42.8,247.5,76.4,204.7,120.7C161.9,165,129.9,216.9,106.9,278.1c-21.3,61.1,-32,129.8,-32,203.2c0,76.3,12.2,146.6,35.1,212.3c22.9,65.7,56.5,122.2,100.8,169.6c42.8,47.4,97.8,85.6,163.5,113.1c64.2,27.5,139,41.2,221.5,41.2c42.8,0,82.5,-3.1,120.7,-7.6c36.7,-6.1,71.8,-13.8,100.9,-24.5l0,-154.3C777.6,843.3,741,851,707.4,855.6c-35.2,6.1,-68.8,7.6,-100.9,7.6c-50.4,0,-96.2,-7.6,-137.5,-24.4C426.3,821.9,391.1,799,360.6,766.9C330,736.4,307.1,696.7,290.3,650.8c-16.8,-45.8,-26,-99.3,-26,-157.3c0,-59.6,7.6,-111.6,22.9,-155.9c15.3,-44.3,38.2,-80.9,67.2,-111.5c29.1,-29,64.2,-51.9,105.5,-67.2C501.1,143.6,548.5,136,600.4,136c38.2,0,76.4,3,116.1,9.1c39.8,4.6,76.4,13.8,110,24.5l0,-155.8C791.4,3.1,754.7,-4.5,715,-10.6c-41.2,-4.6,-82.5,-7.6,-126.8,-7.6Z" 
	id="f1_4"
	transform="scale(0.001,-0.001)" />

	<path d="M119.2,0l0,997.6l183.3,0L302.5,0Z" 
	id="f1_8"
	transform="scale(0.001,-0.001)" />

	<path d="M197.1,-18.2c-29,0,-59.6,3,-87.1,7.6C81,-6,56.5,0,36.7,9.2l0,155.8c22.9,-9.2,45.8,-16.8,70.2,-21.4c26,-4.6,50.5,-7.6,74.9,-7.6c47.4,0,81,10.7,102.4,33.6c21.4,21.4,32.1,53.5,32.1,96.2l0,731.8l183.3,0l0,-736.3c0,-33.7,-1.5,-61.2,-7.7,-85.6c-4.5,-22.9,-10.6,-44.3,-21.3,-62.6C458.3,90.1,443.1,70.3,424.7,53.5C404.9,36.7,383.5,22.9,359,12.2C336.1,1.5,310.1,-6,282.6,-10.6c-27.5,-6.1,-55,-7.6,-85.5,-7.6Z" 
	id="f1_9"
	transform="scale(0.001,-0.001)" />

	<path d="M67.2,0l0,97.8L601.9,844.9L81,844.9l0,152.7l763.9,0l0,-99.3L310.1,152.8l540.9,0L851,0Z" 
	id="f1_k"
	transform="scale(0.001,-0.001)" />

	<path d="M392.6,539.3c41.3,0,76.4,1.5,105.5,6.1c29,3.1,53.4,9.2,73.3,16.8c36.7,13.8,62.6,32.1,76.4,56.6c13.7,24.4,21.4,51.9,21.4,82.5c0,27.5,-6.1,51.9,-16.8,71.8c-10.7,21.3,-30.6,36.6,-56.6,48.8c-16.8,7.7,-39.7,13.8,-65.7,16.9c-25.9,4.5,-58,6.1,-97.7,6.1l-129.9,0l0,-305.6ZM119.2,0l0,997.6l304,0c50.4,0,96.2,-3,139,-9.1c44.3,-4.6,81,-13.8,111.6,-24.5c58,-22.9,103.8,-56.5,135.9,-99.3c32.1,-44.3,47.4,-99.3,47.4,-166.5C857.1,627.9,837.2,569.9,799,521C760.8,472.1,701.3,436.9,620.3,414l0,-3L919.7,0l-220,0L427.8,386.5l-125.3,0L302.5,0Z" 
	id="f1_f"
	transform="scale(0.001,-0.001)" />

	<path d="M588.2,-18.2c-84,0,-158.9,12.2,-223.1,36.5C302.5,42.8,247.5,76.4,204.7,120.7C161.9,165,129.9,216.9,106.9,278.1c-21.3,61.1,-32,129.8,-32,203.2c0,76.3,12.2,146.6,35.1,212.3c22.9,65.7,56.5,122.2,100.8,169.6c42.8,47.4,97.8,85.6,163.5,113.1c64.2,27.5,139,41.2,221.5,41.2c42.8,0,82.5,-3.1,120.7,-7.6c36.7,-6.1,71.8,-13.8,100.9,-24.5l0,-154.3C777.6,843.3,741,851,707.4,855.6c-35.2,6.1,-68.8,7.6,-100.9,7.6c-50.4,0,-96.2,-7.6,-137.5,-24.4C426.3,821.9,391.1,799,360.6,766.9C330,736.4,307.1,696.7,290.3,650.8c-16.8,-45.8,-26,-99.3,-26,-157.3c0,-59.6,7.6,-111.6,22.9,-155.9c15.3,-44.3,38.2,-80.9,67.2,-111.5c29.1,-29,64.2,-51.9,105.5,-67.2C501.1,143.6,548.5,136,600.4,136c38.2,0,76.4,3,116.1,9.1c39.8,4.6,76.4,13.8,110,24.5l0,-155.8C791.4,3.1,754.7,-4.5,715,-10.6c-41.2,-4.6,-82.5,-7.6,-126.8,-7.6ZM485.8,1051.1L325.4,1236l154.3,0l81,-94.7l3.1,0l84,94.7l152.8,0L640.1,1051.1Z" 
	id="f1_l"
	transform="scale(0.001,-0.001)" />

	<path d="M533.2,-18.2c-51.9,0,-99.3,4.5,-140.6,15.2C349.9,7.6,313.2,21.4,282.6,41.3c-32,18.3,-59.5,42.7,-82.5,70.2c-21.3,27.5,-39.7,58.1,-53.4,93.2c-10.7,27.5,-18.4,58.1,-22.9,91.7c-4.6,35.1,-7.7,71.8,-7.7,114.6l0,586.6l183.3,0l0,-571.3c0,-70.3,9.2,-125.3,26,-165c18.4,-44.4,45.9,-76.4,82.5,-96.3c35.2,-18.3,77.9,-29,128.4,-29c48.8,0,91.6,10.7,126.8,29c36.6,19.9,64.1,51.9,84,96.3c16.8,39.7,24.4,94.7,24.4,165l0,571.3l183.4,0l0,-586.6c0,-42.8,-1.6,-79.5,-7.7,-114.6C942.6,262.8,935,232.2,924.3,204.7C910.6,169.6,892.2,139,870.8,111.5C847.9,84,820.4,59.6,786.8,41.3C754.7,21.4,718.1,7.6,675.3,-3C632.5,-13.7,585.1,-18.2,533.2,-18.2Z" 
	id="f1_i"
	transform="scale(0.001,-0.001)" />

	<path d="M562.2,136c42.8,0,82.5,7.6,119.2,22.9c35.1,15.3,67.2,38.2,93.2,67.2c26,30.6,47.3,68.8,61.1,114.6c15.3,45.8,22.9,97.8,22.9,158.9c0,61.1,-7.6,114.6,-22.9,158.9c-13.8,45.8,-35.1,84,-61.1,114.6c-26,30.5,-58.1,53.4,-93.2,67.2C644.7,855.6,605,863.2,562.2,863.2c-44.3,0,-84,-7.6,-119.1,-22.9C406.4,826.5,374.3,803.6,348.3,773.1C322.4,742.5,301,704.3,287.2,658.5C271.9,614.2,264.3,560.7,264.3,499.6c0,-61.1,7.6,-113.1,22.9,-158.9c13.8,-45.8,35.2,-84,61.1,-114.6c26,-29,58.1,-51.9,94.8,-67.2C478.2,143.6,517.9,136,562.2,136Zm0,-154.2C484.3,-18.2,415.6,-6,356,19.9C294.9,45.8,244.4,81,201.7,126.8c-41.3,45.8,-71.8,100.8,-94.8,163.5c-21.3,64.1,-32,132.9,-32,209.3c0,76.4,10.7,146.7,32,209.3c23,64.2,53.5,117.6,94.8,163.5c42.7,45.8,93.2,82.5,154.3,106.9c59.6,26,128.3,38.2,206.2,38.2c76.4,0,145.2,-12.2,206.3,-38.2C828.1,954.9,880,918.2,921.3,872.4c41.2,-45.9,73.3,-99.3,94.7,-163.5c21.4,-62.6,32.1,-132.9,32.1,-209.3c0,-76.4,-10.7,-145.2,-32.1,-209.3C994.6,227.6,962.5,172.6,921.3,126.8C880,81,828.1,45.8,768.5,19.9C707.4,-6,638.6,-18.2,562.2,-18.2Z" 
	id="f1_d"
	transform="scale(0.001,-0.001)" />

	<path d="M404.9,0L15.3,997.6l194,0l184.9,-495c27.5,-71.8,44.3,-119.1,51.9,-142c9.2,-24.5,21.4,-62.7,39.7,-116.2l3.1,0c18.3,53.5,32.1,91.7,41.2,116.2c7.7,22.9,24.5,70.2,50.5,142l186.3,495l192.5,0L569.9,0Z" 
	id="f1_j"
	transform="scale(0.001,-0.001)" />

	<path d="M377.4,152.8c106.9,0,190.9,15.3,250.5,44.3c53.5,26,93.2,64.2,120.7,114.6c27.5,50.4,41.3,114.6,41.3,192.5c0,41.2,-4.6,77.9,-13.8,110c-9.2,33.6,-21.4,62.6,-38.2,88.6c-16.8,24.4,-38.2,47.3,-61.1,65.7c-24.4,18.3,-51.9,33.6,-82.5,45.8c-27.5,10.7,-59.6,18.3,-94.7,22.9c-33.6,4.6,-73.3,7.7,-116.1,7.7l-81,0l0,-692.1ZM119.2,0l0,997.6l264.3,0c22.9,0,47.3,0,71.8,-1.5c22.9,-1.5,47.3,-4.6,70.3,-7.6c22.9,-3.1,44.3,-6.1,65.7,-10.7c21.3,-4.6,41.2,-9.2,59.5,-15.3c53.5,-16.8,99.3,-39.7,140.6,-68.7c41.2,-29.1,74.9,-62.7,102.4,-102.4C921.3,753.2,942.6,708.9,956.4,660c13.7,-47.4,21.4,-100.8,21.4,-157.4c0,-53.4,-6.1,-103.8,-18.4,-151.2C948.8,304,930.4,261.3,906,223.1C881.5,184.9,851,149.7,812.8,120.7C776.1,91.7,731.8,67.2,681.4,47.4C640.1,32.1,591.3,19.9,537.8,12.2C484.3,4.6,423.2,0,356,0Z" 
	id="f1_5"
	transform="scale(0.001,-0.001)" />

	<path d="M378.9,-18.2c-55,0,-108.5,4.5,-160.4,15.2C166.5,9.2,122.2,22.9,87.1,42.8l0,154.3c50.4,-21.4,97.8,-36.7,145.1,-45.8C278.1,140.6,326.9,136,375.8,136c29.1,0,58.1,3,85.6,7.6c27.5,4.6,51.9,12.2,74.9,24.5c21.3,10.7,39.7,25.9,53.4,45.8c13.8,19.9,19.9,44.3,19.9,73.3c0,24.5,-6.1,45.9,-18.3,61.1c-12.3,15.3,-29.1,29.1,-50.5,38.2C519.4,397.2,495,404.9,469,411c-27.5,6.1,-55,12.2,-84,18.3c-38.2,9.2,-76.4,18.3,-111.5,30.6c-35.2,12.2,-65.7,27.5,-91.7,48.9c-27.5,19.8,-48.9,45.8,-64.2,77.9C100.8,618.8,93.2,658.5,93.2,705.8c0,53.5,9.2,99.3,27.5,139.1c18.3,38.2,44.3,70.2,74.9,96.2c32,26,68.7,44.3,111.5,58.1c42.8,12.2,91.7,18.3,143.6,18.3c53.5,0,106.9,-4.6,160.4,-15.3c55,-10.7,100.8,-24.4,139,-39.7l0,-157.4C698.2,825,649.3,840.3,601.9,849.4c-47.3,9.2,-93.1,13.8,-134.4,13.8c-59.6,0,-106.9,-10.7,-139,-32.1c-32.1,-22.9,-48.9,-55,-48.9,-99.3c0,-26,6.1,-45.8,16.8,-62.6c10.7,-16.8,24.4,-30.6,42.8,-41.3c18.3,-10.7,39.7,-18.3,62.6,-26c24.5,-6.1,48.9,-12.2,76.4,-16.8c42.8,-9.1,82.5,-19.8,120.7,-32c38.2,-10.7,71.8,-27.5,102.4,-47.4c29,-21.4,53.4,-48.9,70.2,-82.5c16.8,-33.6,26,-76.4,26,-128.3c0,-53.5,-9.2,-100.9,-29,-140.6C748.6,116.1,719.6,82.5,682.9,58.1C646.3,32.1,601.9,12.2,550,0C498.1,-12.1,440,-18.2,378.9,-18.2Z" 
	id="f1_g"
	transform="scale(0.001,-0.001)" />

	<path d="M345.3,0l0,844.9l-322.4,0l0,152.7l828.1,0l0,-152.7l-322.4,0L528.6,0Z" 
	id="f1_h"
	transform="scale(0.001,-0.001)" />

	<path d="M119.2,0l0,997.6l183.3,0l0,-844.8l467.5,0L770,0Z" 
	id="f1_b"
	transform="scale(0.001,-0.001)" />

	<path d="M392.6,539.3c48.9,0,90.2,4.6,123.8,12.2c33.6,7.7,59.6,18.4,81,33.6c19.8,13.8,33.6,30.6,42.7,50.5c9.2,19.8,13.8,42.7,13.8,65.7c0,30.5,-6.1,55,-19.9,76.3c-13.7,21.4,-36.6,38.2,-70.2,50.5c-16.9,6.1,-38.2,10.7,-64.2,12.2c-26,3,-56.5,4.6,-94.7,4.6l-102.4,0l0,-301c10.7,-1.5,24.4,-3.1,39.7,-3.1c16.8,-1.5,33.6,-1.5,50.4,-1.5ZM119.2,0l0,997.6l288.7,0c47.4,0,90.2,-1.5,126.8,-6.1c35.2,-4.6,67.2,-10.7,96.3,-18.3c67.2,-21.4,120.7,-55,157.3,-100.8c36.7,-45.9,55,-103.9,55,-174.2c0,-48.9,-9.1,-91.7,-29,-129.9C794.4,530.1,763.9,496.5,725.7,470.6c-38.2,-27.5,-84,-47.4,-139,-62.7C530.1,394.2,467.5,386.5,395.7,386.5c-16.8,0,-32.1,0,-48.9,1.6c-15.3,0,-30.5,1.5,-44.3,3L302.5,0Z" 
	id="f1_e"
	transform="scale(0.001,-0.001)" />

	<path d="M119.2,0l0,997.6l183.3,0l0,-453.7l3.1,0L681.4,997.6l227.6,0L491.9,504.2L942.6,0L708.9,0L305.6,450.7l-3.1,0L302.5,0Z" 
	id="f1_a"
	transform="scale(0.001,-0.001)" />


</defs>

<!-- Any embedded fonts defined here -->
<style type="text/css" ><![CDATA[

@font-face {
	font-family: Bauhaus93_i;
	src: url("fonts/Bauhaus93_i.woff") format("woff");
}

@font-face {
	font-family: Corbel-Bold_s;
	src: url("fonts/Corbel-Bold_s.woff") format("woff");
}

]]></style>

</svg>
