<svg xmlns="http://www.w3.org/2000/svg" viewBox="0 0 438.5 438.5"><path d="M414.4 24c-16-16-35.4-24-58-24H82c-22.6 0-42 8-58 24C8 40.3 0 59.7 0 82.3v274c0 22.8 8 42 24 58.2 16.2 16 35.6 24 58.2 24h274c22.8 0 42-8 58.2-24 16-16 24-35.4 24-58V82c0-22.6-8-42-24-58zm-55.2 309c-4 8.6-13 16.2-27 22.7s-26.4 9.7-37.3 9.7c-3 0-6.4-.2-9.8-.7l-8.7-1.4c-2.4-.5-5.5-1.3-9.4-2.6l-8.3-2.8-9.5-3.7c-4.5-1.7-7.4-2.8-8.5-3-31.2-11.6-61.7-32.2-91.5-62-29.8-29.7-50.4-60.2-61.8-91.5l-3.2-8.5c-1.7-4.6-3-7.7-3.5-9.4l-3-8.6c-1-4-2-7-2.5-9.4-.4-2.4-1-5.3-1.4-8.7-.5-3.4-.7-6.6-.7-9.7 0-10.8 3.3-23.3 9.8-37.3 6.5-14 14-23 22.8-27 10-4 19.7-6.2 29-6.2 2 0 3.5.3 4.4.7 1 .3 2.6 2 4.8 5 2 3 4.5 7 7 11.7l7.7 13.5c2.4 4.3 4.8 8.6 7 13l4.4 8c.5 1 1.7 2.8 3.6 5.5 2 2.6 3.3 5 4.3 7 .8 2.2 1.3 4.2 1.3 6 0 3-2 6.4-6 10.5-3.8 4-8 8-12.7 11.3s-9 7-13 11c-3.7 4-5.7 7-5.7 9.6 0 1.2.2 2.8 1 4.6.6 1.8 1.2 3.3 1.8 4.4l2.7 5 2.4 4c10.4 18.7 22.4 35 36 48.5 13.6 13.7 29.8 25.7 48.7 36.2.6.3 2 1 4 2.4 2 1.3 3.7 2.2 4.8 2.8 1.2.6 2.7 1.2 4.5 1.8 1.8.7 3.3 1 4.7 1 3 0 7.2-3 12.5-9.4l16.3-18.7c5.5-6.2 10-9.3 13.4-9.3 1.8 0 3.8.5 6 1.5 2 1 4.4 2.4 7 4.3 2.7 2 4.5 3 5.5 3.7l15 8.2c10.2 5.3 18.6 10 25.4 14s10.3 7 11 8.5c.3 1 .5 2.5.5 4.6 0 9.2-2 18.8-6.3 29z"/></svg>